# Blender 3.5.0
# www.blender.org
mtllib Ground2.mtl
o Cube
v 20.000000 4.000000 -20.000000
v 20.000000 0.000000 -20.000000
v 20.000000 4.000000 20.000000
v 20.000000 0.000000 20.000000
v -20.000000 4.000000 -20.000000
v -20.000000 0.000000 -20.000000
v -20.000000 4.000000 20.000000
v -20.000000 0.000000 20.000000
v 20.000000 0.000000 -20.000000
v 20.000000 0.000000 20.000000
v -20.000000 0.000000 -20.000000
v -20.000000 0.000000 20.000000
v 20.000000 4.000000 -21.000000
v -20.000000 4.000000 -21.000000
v 20.000000 0.000000 -21.000000
v -20.000000 0.000000 -21.000000
v -21.000000 4.000000 -20.000000
v -21.000000 4.000000 20.000000
v -21.000000 0.000000 -20.000000
v -21.000000 0.000000 20.000000
v 20.000000 4.000000 21.000000
v -20.000000 4.000000 21.000000
v 20.000000 0.000000 21.000000
v -20.000000 0.000000 21.000000
v 21.000000 4.000000 -20.000000
v 21.000000 4.000000 20.000000
v 21.000000 0.000000 -20.000000
v 21.000000 0.000000 20.000000
v 20.000000 4.000000 -21.000000
v 20.000000 0.000000 -21.000000
v 21.000000 4.000000 -21.000000
v 21.000000 0.000000 -21.000000
v -21.000000 4.000000 -20.000000
v -21.000000 0.000000 -20.000000
v -21.000000 4.000000 -21.000000
v -21.000000 0.000000 -21.000000
v -20.000000 4.000000 21.000000
v -20.000000 0.000000 21.000000
v -21.000000 4.000000 21.000000
v -21.000000 0.000000 21.000000
v 21.000000 4.000000 20.000000
v 21.000000 0.000000 20.000000
v 21.000000 4.000000 21.000000
v 21.000000 0.000000 21.000000
v 20.000000 -1.024603 -20.000000
v 20.000000 -1.024603 20.000000
v -20.000000 -1.024603 -20.000000
v -20.000000 -1.024603 20.000000
v -20.000000 14.000000 -20.000000
v 20.000000 14.000000 -20.000000
v -20.000000 14.000000 -21.000000
v 20.000000 14.000000 -21.000000
v 20.000000 14.000000 20.000000
v -20.000000 14.000000 20.000000
v 20.000000 14.000000 -20.000000
v -20.000000 14.000000 -20.000000
v -21.000000 14.000000 20.000000
v -21.000000 14.000000 -20.000000
v 20.000000 14.000000 21.000000
v -20.000000 14.000000 21.000000
v 21.000000 14.000000 -20.000000
v 21.000000 14.000000 20.000000
vn -0.0000 -0.0000 -1.0000
vn 1.0000 -0.0000 -0.0000
vn -0.0000 1.0000 -0.0000
vn -1.0000 -0.0000 -0.0000
vn -0.0000 -0.0000 1.0000
vn -0.0000 -1.0000 -0.0000
vt 0.625000 0.500000
vt 0.375000 0.500000
vt 0.625000 0.750000
vt 0.375000 0.750000
vt 0.625000 0.250000
vt 0.125000 0.500000
vt 0.375000 0.250000
vt 0.625000 0.000000
vt 0.625000 1.000000
vt 0.375000 1.000000
vt 0.375000 0.000000
vt 0.125000 0.750000
vt 0.625000 0.500000
vt 0.625000 0.750000
vt 0.625000 0.250000
vt 0.875000 0.500000
vt 0.625000 1.000000
vt 0.875000 0.750000
vt 0.625000 0.500000
vt 0.625000 0.250000
vt 0.625000 0.500000
vt 0.875000 0.500000
vt 0.625000 0.250000
vt 0.625000 0.250000
vt 0.625000 0.000000
vt 0.625000 0.250000
vt 0.875000 0.500000
vt 0.875000 0.750000
vt 0.625000 0.000000
vt 0.625000 0.750000
vt 0.625000 1.000000
vt 0.625000 0.750000
vt 0.625000 1.000000
vt 0.875000 0.750000
vt 0.625000 0.500000
vt 0.625000 0.750000
vt 0.625000 0.500000
vt 0.625000 0.750000
vt 0.625000 0.500000
vt 0.625000 0.500000
vt 0.625000 0.500000
vt 0.625000 0.500000
vt 0.625000 0.250000
vt 0.625000 0.250000
vt 0.875000 0.500000
vt 0.625000 0.250000
vt 0.875000 0.500000
vt 0.625000 0.250000
vt 0.625000 1.000000
vt 0.625000 0.000000
vt 0.875000 0.750000
vt 0.625000 1.000000
vt 0.625000 1.000000
vt 0.625000 0.000000
vt 0.875000 0.750000
vt 0.625000 1.000000
vt 0.625000 0.000000
vt 0.625000 0.750000
vt 0.625000 0.750000
vt 0.625000 0.750000
vt 0.625000 0.750000
vt 0.625000 0.500000
vt 0.625000 0.750000
vt 0.875000 0.500000
vt 0.875000 0.750000
vt 0.625000 0.250000
vt 0.625000 0.500000
vt 0.625000 0.250000
vt 0.625000 0.500000
vt 0.625000 0.750000
vt 0.625000 0.000000
vt 0.625000 1.000000
vt 0.625000 0.500000
vt 0.625000 0.250000
vt 0.625000 0.000000
vt 0.625000 0.250000
vt 0.625000 0.750000
vt 0.625000 1.000000
vt 0.625000 0.500000
vt 0.625000 0.750000
s 0
usemtl Material
f 25/35/1 1/1/1 55/73/1 61/79/1
f 4/4/1 8/10/1 7/9/1 3/3/1
f 8/11/2 6/7/2 5/5/2 7/8/2
f 6/6/3 8/12/3 4/4/3 2/2/3
f 2/2/4 4/4/4 3/3/4 1/1/4
f 6/7/5 2/2/5 1/1/5 5/5/5
f 9/13/1 45/62/1 47/64/1 11/16/1
f 12/18/6 38/51/6 40/55/6 20/28/6
f 7/9/4 22/31/4 60/78/4 54/72/4
f 11/16/6 16/22/6 15/21/6 9/13/6
f 13/19/1 15/21/1 16/23/1 14/20/1
f 5/5/5 33/43/5 34/44/5 11/15/5
f 14/20/4 5/5/4 49/66/4 51/68/4
f 9/13/2 15/21/2 13/19/2 1/1/2
f 17/24/4 19/26/4 20/29/4 18/25/4
f 1/1/4 3/3/4 53/70/4 55/73/4
f 11/15/1 19/26/1 17/24/1 5/5/1
f 12/18/6 20/28/6 19/27/6 11/16/6
f 22/31/5 24/33/5 23/32/5 21/30/5
f 12/17/4 24/33/4 22/31/4 7/9/4
f 21/30/3 43/60/3 41/58/3 3/3/3
f 10/14/6 23/32/6 24/34/6 12/18/6
f 26/36/2 28/38/2 27/37/2 25/35/2
f 10/14/5 28/38/5 26/36/5 3/3/5
f 9/13/6 30/40/6 32/42/6 27/37/6
f 9/13/6 27/37/6 28/38/6 10/14/6
f 29/39/1 31/41/1 32/42/1 30/40/1
f 27/37/2 32/42/2 31/41/2 25/35/2
f 1/1/4 29/39/4 30/40/4 9/13/4
f 25/35/3 31/41/3 29/39/3 1/1/3
f 33/43/4 35/46/4 36/48/4 34/44/4
f 11/16/6 34/45/6 36/47/6 16/22/6
f 14/20/3 35/46/3 33/43/3 5/5/3
f 16/23/1 36/48/1 35/46/1 14/20/1
f 37/49/5 39/53/5 40/56/5 38/52/5
f 20/29/4 40/57/4 39/54/4 18/25/4
f 7/9/2 37/49/2 38/52/2 12/17/2
f 18/25/3 39/54/3 37/50/3 7/8/3
f 41/58/2 43/60/2 44/61/2 42/59/2
f 3/3/1 41/58/1 42/59/1 10/14/1
f 23/32/5 44/61/5 43/60/5 21/30/5
f 10/14/6 42/59/6 44/61/6 23/32/6
f 45/62/6 46/63/6 48/65/6 47/64/6
f 10/14/2 46/63/2 45/62/2 9/13/2
f 11/16/4 47/64/4 48/65/4 12/18/4
f 12/18/5 48/65/5 46/63/5 10/14/5
f 50/67/3 52/69/3 51/68/3 49/66/3
f 13/19/1 14/20/1 51/68/1 52/69/1
f 1/1/2 13/19/2 52/69/2 50/67/2
f 5/5/5 1/1/5 50/67/5 49/66/5
f 54/72/3 60/78/3 59/77/3 53/70/3
f 53/70/3 62/80/3 61/79/3 55/73/3
f 56/74/3 58/76/3 57/75/3 54/71/3
f 17/24/4 18/25/4 57/75/4 58/76/4
f 3/3/5 26/36/5 62/80/5 53/70/5
f 22/31/5 21/30/5 59/77/5 60/78/5
f 7/8/2 5/5/2 56/74/2 54/71/2
f 18/25/5 7/8/5 54/71/5 57/75/5
f 21/30/2 3/3/2 53/70/2 59/77/2
f 3/3/1 7/9/1 54/72/1 53/70/1
f 26/36/2 25/35/2 61/79/2 62/80/2
f 5/5/1 17/24/1 58/76/1 56/74/1
